<?xml version="1.0" encoding="UTF-8" standalone="no"?>
<!-- Created with Inkscape (http://www.inkscape.org/) -->

<svg
   xmlns:dc="http://purl.org/dc/elements/1.1/"
   xmlns:cc="http://creativecommons.org/ns#"
   xmlns:rdf="http://www.w3.org/1999/02/22-rdf-syntax-ns#"
   xmlns:svg="http://www.w3.org/2000/svg"
   xmlns="http://www.w3.org/2000/svg"
   xmlns:sodipodi="http://sodipodi.sourceforge.net/DTD/sodipodi-0.dtd"
   xmlns:inkscape="http://www.inkscape.org/namespaces/inkscape"
   width="7in"
   height="6in"
   viewBox="0 0 630 540"
   id="svg2"
   version="1.1"
   inkscape:version="0.91 r13725"
   sodipodi:docname="blend_chains.svg">
  <defs
     id="defs4">
    <filter
       inkscape:collect="always"
       style="color-interpolation-filters:sRGB"
       id="filter4952"
       x="-0.016590677"
       width="1.0331814"
       y="-0.0093992162"
       height="1.0187984">
      <feGaussianBlur
         inkscape:collect="always"
         stdDeviation="0.28674691"
         id="feGaussianBlur4954" />
    </filter>
  </defs>
  <sodipodi:namedview
     id="base"
     pagecolor="#ffffff"
     bordercolor="#666666"
     borderopacity="1.0"
     inkscape:pageopacity="0.0"
     inkscape:pageshadow="2"
     inkscape:zoom="2"
     inkscape:cx="245.03025"
     inkscape:cy="311.7855"
     inkscape:document-units="px"
     inkscape:current-layer="layer1"
     showgrid="false"
     units="in"
     height="6in"
     showguides="true"
     inkscape:window-width="1920"
     inkscape:window-height="1034"
     inkscape:window-x="0"
     inkscape:window-y="27"
     inkscape:window-maximized="1" />
  <metadata
     id="metadata7">
    <rdf:RDF>
      <cc:Work
         rdf:about="">
        <dc:format>image/svg+xml</dc:format>
        <dc:type
           rdf:resource="http://purl.org/dc/dcmitype/StillImage" />
        <dc:title></dc:title>
      </cc:Work>
    </rdf:RDF>
  </metadata>
  <g
     inkscape:groupmode="layer"
     id="layer2"
     inkscape:label="Layer 2"
     style="display:inline">
    <path
       style="display:inline;opacity:0.6;fill:#0000ff;fill-opacity:0.49803922;stroke:none;stroke-width:2.5;stroke-miterlimit:4;stroke-dasharray:none;stroke-opacity:1"
       d="m 482.78273,224.78272 a 33.214287,29.642857 76.850827 0 0 -19.09115,16.06898 40.887933,21.028733 0.0429801 0 0 -26.74538,1.23979 40.887933,21.028733 0.0429801 0 0 -20.26831,27.84073 40.887933,21.028733 0.0429801 0 0 42.28593,12.1723 21.428572,33.214287 40.068532 0 0 -1.59134,1.77374 21.428572,33.214287 40.068532 0 0 -9.40275,17.56638 31.071428,8.2142849 71.015076 0 0 -9.80562,-8.85904 31.071428,8.2142849 71.015076 0 0 2.33917,32.05239 31.071428,8.2142849 71.015076 0 0 17.87686,26.70971 31.071428,8.2142849 71.015076 0 0 -0.27426,-25.36837 21.428572,33.214287 40.068532 0 0 32.0642,-14.51459 21.428572,33.214287 40.068532 0 0 9.09947,-16.46058 7.8571424,7.1428561 76.850827 0 0 6.64995,2.12498 7.8571424,7.1428561 76.850827 0 0 5.16784,-9.27626 7.8571424,7.1428561 76.850827 0 0 -2.1414,-3.9464 33.214287,29.642857 76.850827 0 0 10.25768,-33.52498 33.214287,29.642857 76.850827 0 0 -36.42089,-25.59878 z"
       id="path4831"
       inkscape:connector-curvature="0" />
    <path
       style="opacity:0.6;fill:#ff0000;fill-opacity:0.49803922;stroke:none;stroke-width:2.5;stroke-miterlimit:4;stroke-dasharray:none;stroke-opacity:1"
       d="m 221.07729,144.03599 a 21.071428,13.571428 57.215718 0 0 -5.34375,1.46289 21.071428,13.571428 57.215718 0 0 0,25.06446 21.071428,13.571428 57.215718 0 0 8.01758,8.43554 17.5,23.928572 43.006502 0 0 -6.19141,5.13672 17.5,23.928572 43.006502 0 0 -3.52344,29.43359 17.5,23.928572 43.006502 0 0 29.11914,-5.56054 17.5,23.928572 43.006502 0 0 3.52344,-29.43555 17.5,23.928572 43.006502 0 0 -4.29687,-2.64844 21.071428,13.571428 57.215718 0 0 -3.83008,-20.05859 21.071428,13.571428 57.215718 0 0 -17.47461,-11.83008 z"
       id="path4868"
       inkscape:connector-curvature="0" />
    <path
       style="opacity:0.6;fill:#00ff00;fill-opacity:0.49803922;stroke:none;stroke-width:2.5;stroke-miterlimit:4;stroke-dasharray:none;stroke-opacity:1"
       d="m 384.64258,92.856581 a 23.928572,30.714285 0 0 0 -23.92773,30.714839 23.928572,30.714285 0 0 0 5.4082,19.41797 16.253473,31.253473 26.210859 0 0 -8.20508,12.33203 16.253473,31.253473 26.210859 0 0 0.77734,35.21875 16.253473,31.253473 26.210859 0 0 28.38672,-20.86133 16.253473,31.253473 26.210859 0 0 1.77734,-4.01172 17.5,27.142857 81.316443 0 0 16.28321,0.91797 17.5,27.142857 81.316443 0 0 24.18945,-21.39648 17.5,27.142857 81.316443 0 0 -21.61133,-13.64258 23.928572,30.714285 0 0 0 0.85156,-7.97461 23.928572,30.714285 0 0 0 -23.92968,-30.714839 z"
       id="path4873"
       inkscape:connector-curvature="0" />
    <path
       inkscape:connector-curvature="0"
       id="path4882"
       d="m 221.07729,144.03599 a 21.071428,13.571428 57.215718 0 0 -5.34375,1.46289 21.071428,13.571428 57.215718 0 0 0,25.06446 21.071428,13.571428 57.215718 0 0 8.01758,8.43554 17.5,23.928572 43.006502 0 0 -6.19141,5.13672 17.5,23.928572 43.006502 0 0 -3.52344,29.43359 17.5,23.928572 43.006502 0 0 29.11914,-5.56054 17.5,23.928572 43.006502 0 0 3.52344,-29.43555 17.5,23.928572 43.006502 0 0 -4.29687,-2.64844 21.071428,13.571428 57.215718 0 0 -3.83008,-20.05859 21.071428,13.571428 57.215718 0 0 -17.47461,-11.83008 z"
       style="opacity:0.6;fill:none;fill-opacity:0.49803922;stroke:none;stroke-width:2.5;stroke-miterlimit:4;stroke-dasharray:none;stroke-opacity:1" />
    <path
       inkscape:connector-curvature="0"
       id="path4957"
       d="m 221.07729,144.03599 a 21.071428,13.571428 57.215718 0 0 -5.34375,1.46289 21.071428,13.571428 57.215718 0 0 0,25.06446 21.071428,13.571428 57.215718 0 0 8.01758,8.43554 17.5,23.928572 43.006502 0 0 -6.19141,5.13672 17.5,23.928572 43.006502 0 0 -3.52344,29.43359 17.5,23.928572 43.006502 0 0 29.11914,-5.56054 17.5,23.928572 43.006502 0 0 3.52344,-29.43555 17.5,23.928572 43.006502 0 0 -4.29687,-2.64844 21.071428,13.571428 57.215718 0 0 -3.83008,-20.05859 21.071428,13.571428 57.215718 0 0 -17.47461,-11.83008 z"
       style="opacity:0.6;fill:#00ff00;fill-opacity:0.49803922;stroke:none;stroke-width:2.5;stroke-miterlimit:4;stroke-dasharray:none;stroke-opacity:1" />
    <path
       style="display:inline;opacity:0.6;fill:#00ff00;fill-opacity:0.49803922;stroke:none;stroke-width:2.5;stroke-miterlimit:4;stroke-dasharray:none;stroke-opacity:1"
       d="m 487.79716,224.10826 a 33.214287,29.642857 76.850827 0 0 -5.01368,0.67383 33.214287,29.642857 76.850827 0 0 -19.09179,16.07031 40.887933,21.028733 0.0429801 0 0 -26.7461,1.23828 40.887933,21.028733 0.0429801 0 0 -16.72656,7.24609 l 98.69141,0 a 33.214287,29.642857 76.850827 0 0 -31.11328,-25.22851 z"
       id="rect4961"
       inkscape:connector-curvature="0" />
    <path
       style="display:inline;opacity:0.6;fill:#ff0000;fill-opacity:0.49803922;stroke:none;stroke-width:6.53203201;stroke-miterlimit:4;stroke-dasharray:none;stroke-opacity:1"
       d="m 210.93778,300.89146 a 52.019656,34.793092 85.469598 0 0 -6.89648,0.88086 52.019656,34.793092 85.469598 0 0 -26.24219,48.9707 16.417428,33.635022 60.702844 0 0 -9.41406,3.62696 5.1101307,22.706566 19.458405 0 0 1.41211,-3.25586 5.1101307,22.706566 19.458405 0 0 5.29297,-26.74414 5.1101307,22.706566 19.458405 0 0 -11.52735,14.40039 5.1101307,22.706566 19.458405 0 0 -5.79687,21.92773 16.417428,33.635022 60.702844 0 0 -15.3086,24.78125 16.417428,33.635022 60.702844 0 0 34.77539,1.2832 16.417428,33.635022 60.702844 0 0 8.00977,-4.64062 52.019656,34.793092 85.469598 0 0 1.24609,2.4375 13.579025,16.104143 0 0 0 -1.79492,7.97852 13.579025,16.104143 0 0 0 0.80664,5.42382 17.965319,24.642619 13.746521 0 0 -16.0664,9.83594 17.965319,24.642619 13.746521 0 0 0.0527,34.00391 17.965319,24.642619 13.746521 0 0 26.03125,-5.11524 17.965319,24.642619 13.746521 0 0 3.52344,-28.07617 13.579025,16.104143 0 0 0 9.0039,-4.91797 52.019656,34.793092 85.469598 0 0 13.27735,0.16602 52.019656,34.793092 85.469598 0 0 12.15234,-7.44531 12.849411,6.946354 24.113003 0 0 3.47461,2.74414 7.7594429,7.515267 0 0 0 -3.48242,6.26562 7.7594429,7.515267 0 0 0 7.75976,7.51563 7.7594429,7.515267 0 0 0 7.75977,-7.51563 7.7594429,7.515267 0 0 0 -0.60156,-2.88086 12.849411,6.946354 24.113003 0 0 6.1914,-3.67578 12.849411,6.946354 24.113003 0 0 -10.40234,-11.4043 12.849411,6.946354 24.113003 0 0 -3.49219,-1.00586 52.019656,34.793092 85.469598 0 0 5.88282,-17.86523 26.32668,15.388403 0 0 0 15.24218,5.39453 11.639164,32.566157 0 0 0 -0.0742,3.52344 11.639164,32.566157 0 0 0 3.07618,22 l 0,-55.92578 a 26.32668,15.388403 0 0 0 -17.56836,5.16601 52.019656,34.793092 85.469598 0 0 -0.7168,-5.48633 52.019656,34.793092 85.469598 0 0 -35.58594,-42.37109 z"
       id="rect4985"
       inkscape:connector-curvature="0" />
    <path
       style="display:inline;opacity:0.6;fill:#0000ff;fill-opacity:0.49803922;stroke:none;stroke-width:5.20123434;stroke-miterlimit:4;stroke-dasharray:none;stroke-opacity:1"
       d="m 210.93778,300.89146 a 52.019656,34.793092 85.469598 0 0 -6.89648,0.88086 52.019656,34.793092 85.469598 0 0 -6.70117,3.0332 l 10.88281,98.92578 a 52.019656,34.793092 85.469598 0 0 13.09961,0.12696 52.019656,34.793092 85.469598 0 0 12.15234,-7.44531 12.849411,6.946354 24.113003 0 0 3.47461,2.74414 7.7594429,7.515267 0 0 0 -3.48242,6.26562 7.7594429,7.515267 0 0 0 7.75976,7.51563 7.7594429,7.515267 0 0 0 7.75977,-7.51563 7.7594429,7.515267 0 0 0 -0.60156,-2.88086 12.849411,6.946354 24.113003 0 0 6.1914,-3.67578 12.849411,6.946354 24.113003 0 0 -10.40234,-11.4043 12.849411,6.946354 24.113003 0 0 -3.49219,-1.00586 52.019656,34.793092 85.469598 0 0 5.88282,-17.86523 26.32668,15.388403 0 0 0 15.24218,5.39453 11.639164,32.566157 0 0 0 -0.0742,3.52344 11.639164,32.566157 0 0 0 11.63868,32.5664 11.639164,32.566157 0 0 0 0.57226,-0.084 10.25355,13.241185 0 0 0 -0.0176,0.44141 10.25355,13.241185 0 0 0 10.25391,13.24023 10.25355,13.241185 0 0 0 10.25391,-13.24023 10.25355,13.241185 0 0 0 -1.18555,-6.16407 5.8195822,9.3046161 0 0 0 0.63086,-4.21484 5.8195822,9.3046161 0 0 0 -5.81836,-9.30469 5.8195822,9.3046161 0 0 0 -4.89258,4.28125 11.639164,32.566157 0 0 0 1.84375,-17.52148 11.639164,32.566157 0 0 0 -0.30664,-7.24414 26.32668,15.388403 0 0 0 8.61914,-11.36524 26.32668,15.388403 0 0 0 -16.60937,-14.28711 7.2051969,8.2310069 0 0 0 2.7539,-6.46875 7.2051969,8.2310069 0 0 0 -7.20508,-8.23242 7.2051969,8.2310069 0 0 0 -7.20703,8.23242 7.2051969,8.2310069 0 0 0 1.75977,5.3711 26.32668,15.388403 0 0 0 -19.57617,5.23437 52.019656,34.793092 85.469598 0 0 -0.7168,-5.48633 52.019656,34.793092 85.469598 0 0 -35.58594,-42.37109 z"
       id="rect4993"
       inkscape:connector-curvature="0" />
  </g>
  <g
     inkscape:label="Layer 1"
     inkscape:groupmode="layer"
     id="layer1"
     transform="translate(0,-512.3622)"
     style="display:inline">
    <rect
       style="fill:none;fill-opacity:0.31840796;stroke:#7f0000;stroke-width:4.70077515;stroke-miterlimit:4;stroke-dasharray:none;stroke-opacity:1"
       id="rect4153"
       width="178.7327"
       height="422.10281"
       x="86.990974"
       y="561.80139" />
    <rect
       style="fill:none;fill-opacity:0.31840796;stroke:#007f00;stroke-width:4.29783773;stroke-miterlimit:4;stroke-dasharray:none;stroke-opacity:1"
       id="rect4153-3"
       width="341.64218"
       height="184.59155"
       x="325.33853"
       y="590.46582"
       transform="matrix(1,0,-0.18183071,0.98332985,0,0)" />
    <rect
       style="fill:none;fill-opacity:0.31840796;stroke:#00007f;stroke-width:4.99129677;stroke-miterlimit:4;stroke-dasharray:none;stroke-opacity:1"
       id="rect4153-3-6"
       width="343.74454"
       height="247.4425"
       x="99.684753"
       y="770.14056"
       transform="matrix(0.9959235,-0.09020187,0.11879952,0.99291826,0,0)" />
    <path
       inkscape:connector-curvature="0"
       id="path5000"
       d="m 384.64258,92.856581 a 23.928572,30.714285 0 0 0 -23.92773,30.714839 23.928572,30.714285 0 0 0 5.4082,19.41797 16.253473,31.253473 26.210859 0 0 -8.20508,12.33203 16.253473,31.253473 26.210859 0 0 0.77734,35.21875 16.253473,31.253473 26.210859 0 0 28.38672,-20.86133 16.253473,31.253473 26.210859 0 0 1.77734,-4.01172 17.5,27.142857 81.316443 0 0 16.28321,0.91797 17.5,27.142857 81.316443 0 0 24.18945,-21.39648 17.5,27.142857 81.316443 0 0 -21.61133,-13.64258 23.928572,30.714285 0 0 0 0.85156,-7.97461 23.928572,30.714285 0 0 0 -23.92968,-30.714839 z"
       style="display:inline;opacity:1;fill:none;fill-opacity:0.49803922;stroke:#000000;stroke-width:2.5;stroke-miterlimit:4;stroke-dasharray:none;stroke-opacity:1"
       transform="translate(0,512.3622)" />
    <text
       xml:space="preserve"
       style="font-style:normal;font-weight:normal;font-size:30px;line-height:125%;font-family:sans-serif;letter-spacing:0px;word-spacing:0px;fill:#000000;fill-opacity:1;stroke:none;stroke-width:1px;stroke-linecap:butt;stroke-linejoin:miter;stroke-opacity:1"
       x="216.5"
       y="868.36218"
       id="text5019"
       sodipodi:linespacing="125%"><tspan
         sodipodi:role="line"
         id="tspan5021"
         x="216.5"
         y="868.36218">3</tspan></text>
  </g>
  <g
     inkscape:groupmode="layer"
     id="layer3"
     inkscape:label="Layer 3"
     style="display:inline">
    <path
       style="fill:none;fill-opacity:0.49803922;stroke:#000000;stroke-width:2.5;stroke-miterlimit:4;stroke-dasharray:none;stroke-opacity:1;filter:url(#filter4952)"
       d="m 221.07729,144.03599 a 21.071428,13.571428 57.215718 0 0 -5.34375,1.46289 21.071428,13.571428 57.215718 0 0 0,25.06446 21.071428,13.571428 57.215718 0 0 8.01758,8.43554 17.5,23.928572 43.006502 0 0 -6.19141,5.13672 17.5,23.928572 43.006502 0 0 -3.52344,29.43359 17.5,23.928572 43.006502 0 0 29.11914,-5.56054 17.5,23.928572 43.006502 0 0 3.52344,-29.43555 17.5,23.928572 43.006502 0 0 -4.29687,-2.64844 21.071428,13.571428 57.215718 0 0 -3.83008,-20.05859 21.071428,13.571428 57.215718 0 0 -17.47461,-11.83008 z"
       id="path4950"
       inkscape:connector-curvature="0" />
    <path
       inkscape:connector-curvature="0"
       id="path4969"
       d="m 482.78273,224.78272 a 33.214287,29.642857 76.850827 0 0 -19.09115,16.06898 40.887933,21.028733 0.0429801 0 0 -26.74538,1.23979 40.887933,21.028733 0.0429801 0 0 -20.26831,27.84073 40.887933,21.028733 0.0429801 0 0 42.28593,12.1723 21.428572,33.214287 40.068532 0 0 -1.59134,1.77374 21.428572,33.214287 40.068532 0 0 -9.40275,17.56638 31.071428,8.2142849 71.015076 0 0 -9.80562,-8.85904 31.071428,8.2142849 71.015076 0 0 2.33917,32.05239 31.071428,8.2142849 71.015076 0 0 17.87686,26.70971 31.071428,8.2142849 71.015076 0 0 -0.27426,-25.36837 21.428572,33.214287 40.068532 0 0 32.0642,-14.51459 21.428572,33.214287 40.068532 0 0 9.09947,-16.46058 7.8571424,7.1428561 76.850827 0 0 6.64995,2.12498 7.8571424,7.1428561 76.850827 0 0 5.16784,-9.27626 7.8571424,7.1428561 76.850827 0 0 -2.1414,-3.9464 33.214287,29.642857 76.850827 0 0 10.25768,-33.52498 33.214287,29.642857 76.850827 0 0 -36.42089,-25.59878 z"
       style="display:inline;fill:none;fill-opacity:0.49803922;stroke:#000000;stroke-width:2.5;stroke-miterlimit:4;stroke-dasharray:none;stroke-opacity:1" />
    <path
       inkscape:connector-curvature="0"
       id="path4971"
       d="m 210.93723,300.89138 a 52.019656,34.793092 85.469598 0 0 -6.8956,0.8807 52.019656,34.793092 85.469598 0 0 -26.24268,48.97057 16.417428,33.635022 60.702844 0 0 -9.41438,3.62651 5.1101307,22.706566 19.458405 0 0 1.41246,-3.25466 5.1101307,22.706566 19.458405 0 0 5.29218,-26.74378 5.1101307,22.706566 19.458405 0 0 -11.52702,14.40035 5.1101307,22.706566 19.458405 0 0 -5.79534,21.92735 16.417428,33.635022 60.702844 0 0 -15.30974,24.78082 16.417428,33.635022 60.702844 0 0 34.77504,1.28385 16.417428,33.635022 60.702844 0 0 8.0095,-4.64028 52.019656,34.793092 85.469598 0 0 1.24727,2.43659 13.579025,16.104143 0 0 0 -1.79589,7.9791 13.579025,16.104143 0 0 0 0.80777,5.42312 17.965319,24.642619 13.746521 0 0 -16.0675,9.83639 17.965319,24.642619 13.746521 0 0 0.0531,34.00267 17.965319,24.642619 13.746521 0 0 26.03202,-5.1139 17.965319,24.642619 13.746521 0 0 3.52206,-28.07658 13.579025,16.104143 0 0 0 9.0052,-4.91819 52.019656,34.793092 85.469598 0 0 13.27743,0.16636 52.019656,34.793092 85.469598 0 0 12.15141,-7.44481 12.849411,6.946354 24.113003 0 0 3.47508,2.74385 7.7594429,7.515267 0 0 0 -3.48266,6.26468 7.7594429,7.515267 0 0 0 7.75945,7.51527 7.7594429,7.515267 0 0 0 7.75944,-7.51527 7.7594429,7.515267 0 0 0 -0.60015,-2.88085 12.849411,6.946354 24.113003 0 0 6.19088,-3.67543 12.849411,6.946354 24.113003 0 0 -10.4025,-11.40403 12.849411,6.946354 24.113003 0 0 -3.49175,-1.00595 52.019656,34.793092 85.469598 0 0 5.88323,-17.86442 26.32668,15.388403 0 0 0 15.24155,5.39378 11.639164,32.566157 0 0 0 -0.0743,3.52277 11.639164,32.566157 0 0 0 11.63917,32.56616 11.639164,32.566157 0 0 0 0.57135,-0.0822 10.25355,13.241185 0 0 0 -0.0167,0.44035 10.25355,13.241185 0 0 0 10.25246,13.23978 10.25355,13.241185 0 0 0 10.25399,-13.23978 10.25355,13.241185 0 0 0 -1.18514,-6.16291 5.8195822,9.3046161 0 0 0 0.63198,-4.2156 5.8195822,9.3046161 0 0 0 -5.81958,-9.30405 5.8195822,9.3046161 0 0 0 -4.89209,4.28018 11.639164,32.566157 0 0 0 1.84287,-17.52193 11.639164,32.566157 0 0 0 -0.30614,-7.24322 26.32668,15.388403 0 0 0 8.62025,-11.36489 26.32668,15.388403 0 0 0 -16.61005,-14.28683 7.2051969,8.2310069 0 0 0 2.75369,-6.47018 7.2051969,8.2310069 0 0 0 -7.20476,-8.23157 7.2051969,8.2310069 0 0 0 -7.20628,8.23157 7.2051969,8.2310069 0 0 0 1.75951,5.37224 26.32668,15.388403 0 0 0 -19.57743,5.23329 52.019656,34.793092 85.469598 0 0 -0.71684,-5.48576 52.019656,34.793092 85.469598 0 0 -35.58584,-42.37123 z"
       style="display:inline;fill:none;fill-opacity:0.49803922;stroke:#000000;stroke-width:2.20443273;stroke-miterlimit:4;stroke-dasharray:none;stroke-opacity:1" />
    <text
       xml:space="preserve"
       style="font-style:normal;font-weight:normal;font-size:30px;line-height:125%;font-family:sans-serif;letter-spacing:0px;word-spacing:0px;fill:#000000;fill-opacity:1;stroke:none;stroke-width:1px;stroke-linecap:butt;stroke-linejoin:miter;stroke-opacity:1"
       x="225"
       y="203"
       id="text5007"
       sodipodi:linespacing="125%"><tspan
         sodipodi:role="line"
         id="tspan5009"
         x="225"
         y="203">2</tspan></text>
    <text
       xml:space="preserve"
       style="font-style:normal;font-weight:normal;font-size:30px;line-height:125%;font-family:sans-serif;letter-spacing:0px;word-spacing:0px;fill:#000000;fill-opacity:1;stroke:none;stroke-width:1px;stroke-linecap:butt;stroke-linejoin:miter;stroke-opacity:1"
       x="378"
       y="138.5"
       id="text5011"
       sodipodi:linespacing="125%"><tspan
         sodipodi:role="line"
         id="tspan5013"
         x="378"
         y="138.5">0</tspan></text>
    <text
       xml:space="preserve"
       style="font-style:normal;font-weight:normal;font-size:30px;line-height:125%;font-family:sans-serif;letter-spacing:0px;word-spacing:0px;fill:#000000;fill-opacity:1;stroke:none;stroke-width:1px;stroke-linecap:butt;stroke-linejoin:miter;stroke-opacity:1"
       x="475"
       y="283"
       id="text5015"
       sodipodi:linespacing="125%"><tspan
         sodipodi:role="line"
         id="tspan5017"
         x="475"
         y="283">1</tspan></text>
  </g>
</svg>
